<svg width="79" height="24" viewBox="0 0 79 24" fill="none" xmlns="http://www.w3.org/2000/svg">
<path d="M4.65031 8.57847H4.0778C3.42997 8.57847 2.85747 8.48431 2.35026 8.29598C1.84806 8.10765 1.41619 7.84869 1.06967 7.51911C0.72316 7.18953 0.451977 6.80345 0.271188 6.35146C0.0903989 5.89946 0 5.4051 0 4.87306C0 4.34573 0.0954153 3.85608 0.281227 3.39937C0.467038 2.94267 0.738214 2.55188 1.08975 2.22231C1.44128 1.89273 1.86816 1.63848 2.37538 1.44544C2.88259 1.25711 3.45509 1.16294 4.09789 1.16294H4.66035V0H5.50402V1.16294H6.06648C6.70928 1.16294 7.28682 1.25711 7.78901 1.44544C8.29622 1.63377 8.72309 1.89273 9.07462 2.22231C9.42616 2.55188 9.69231 2.94267 9.88314 3.39937C10.074 3.85608 10.1644 4.34573 10.1644 4.87306C10.1644 5.4051 10.069 5.89946 9.88314 6.35146C9.69733 6.80345 9.42616 7.19424 9.07462 7.51911C8.72309 7.84398 8.29622 8.10294 7.78901 8.29598C7.28682 8.48431 6.70928 8.57847 6.06648 8.57847H5.50402V9.74142H4.66035V8.57847H4.65031ZM4.66537 7.91931V1.80797H4.08784C3.59067 1.80797 3.14874 1.88331 2.75703 2.02926C2.36532 2.17522 2.02885 2.37297 1.75265 2.6178C1.47644 2.86263 1.26553 3.14984 1.11487 3.47C0.96421 3.79487 0.888875 4.12916 0.888875 4.47286V5.27326C0.888875 5.61697 0.96421 5.95126 1.11487 6.26671C1.26553 6.58687 1.47645 6.86937 1.74764 7.1142C2.01882 7.35903 2.35026 7.55678 2.74197 7.70273C3.13368 7.84869 3.58062 7.92402 4.07277 7.92402H4.66537V7.91931ZM6.05141 7.91931C6.53854 7.91931 6.98048 7.84398 7.37721 7.69802C7.77394 7.55207 8.11041 7.35432 8.38662 7.10949C8.66283 6.86466 8.87374 6.58217 9.0244 6.262C9.17506 5.94184 9.25038 5.61226 9.25038 5.26856V4.46815C9.25038 4.12445 9.17506 3.79016 9.0244 3.46529C8.87374 3.14042 8.66283 2.85792 8.38662 2.61309C8.11041 2.36826 7.77394 2.17052 7.37721 2.02456C6.98048 1.8786 6.53854 1.80327 6.05141 1.80327H5.47892V7.91461H6.05141V7.91931Z" fill="white"/>
<path d="M12.9966 9.36894V0.3479H16.8384C17.6871 0.3479 18.3399 0.573898 18.7869 1.02589C19.2338 1.47789 19.4598 2.08996 19.4598 2.86682C19.4598 3.6531 19.2338 4.26989 18.7869 4.72188C18.3399 5.17387 17.6871 5.39987 16.8384 5.39987H13.8352V9.36894H12.9966ZM13.8352 4.71717H16.8384C17.4008 4.71717 17.8277 4.57121 18.1189 4.28401C18.4152 3.99681 18.5609 3.62485 18.5609 3.17757V2.55608C18.5609 2.11821 18.4152 1.75096 18.1189 1.46376C17.8226 1.17656 17.3958 1.0306 16.8384 1.0306H13.8352V4.71717Z" fill="white"/>
<path d="M25.6315 9.52246C24.376 9.52246 23.3968 9.12696 22.6887 8.34068C21.9756 7.5544 21.624 6.39146 21.624 4.85657C21.624 3.32167 21.9806 2.16344 22.6887 1.37245C23.4018 0.586169 24.3811 0.190674 25.6315 0.190674C26.877 0.190674 27.8512 0.586171 28.5643 1.38187C29.2774 2.17756 29.629 3.33109 29.629 4.85657C29.629 6.38204 29.2724 7.54027 28.5643 8.33126C27.8512 9.12696 26.877 9.52246 25.6315 9.52246ZM25.6315 8.83505C26.0986 8.83505 26.5204 8.75972 26.9021 8.60905C27.2787 8.45839 27.6051 8.2371 27.8763 7.94048C28.1475 7.64857 28.3584 7.28603 28.5091 6.86229C28.6597 6.43854 28.7351 5.9583 28.7351 5.42156V4.28216C28.7351 3.74541 28.6597 3.26517 28.5091 2.84143C28.3584 2.41769 28.1475 2.05985 27.8763 1.77265C27.6051 1.48074 27.2787 1.25945 26.9021 1.10408C26.5254 0.948705 26.0986 0.868665 25.6315 0.868665C25.1645 0.868665 24.7376 0.948705 24.356 1.10408C23.9743 1.25945 23.6428 1.48074 23.3717 1.77265C23.1005 2.06456 22.8896 2.41769 22.7389 2.84143C22.5882 3.26517 22.5129 3.74541 22.5129 4.28216V5.42156C22.5129 5.9583 22.5882 6.43854 22.7389 6.86229C22.8896 7.28603 23.1005 7.64386 23.3717 7.94048C23.6428 8.23239 23.9693 8.45839 24.356 8.60905C24.7376 8.75972 25.1645 8.83505 25.6315 8.83505Z" fill="white"/>
<path d="M38.8148 5.1315H33.4413V9.36894H32.5977V0.3479H33.4413V4.44409H38.8148V0.3479H39.6585V9.36894H38.8148V5.1315Z" fill="white"/>
<path d="M46.1469 1.0306V9.36423H45.3083V1.0306H42.0239V0.3479H49.4313V1.0306H46.1469Z" fill="white"/>
<path d="M51.8013 9.36895V0.3479H57.5213V1.0306H52.6399V4.4441H57.2802V5.1315H52.6399V8.68625H57.5213V9.37365H51.8013V9.36895Z" fill="white"/>
<path d="M66.7665 5.1315H61.393V9.36894H60.5493V0.3479H61.393V4.44409H66.7665V0.3479H67.6101V9.36894H66.7665V5.1315Z" fill="white"/>
<path d="M69.8351 8.68153H70.8445C71.2764 8.11183 71.6028 7.36322 71.8338 6.42627C72.0648 5.48933 72.1753 4.31697 72.1753 2.90449V0.3479H77.6844V8.68153H79.0001V11.304H78.2167V9.36423H70.6135V11.304H69.8301V8.68153H69.8351ZM76.8457 8.68153V1.0306H72.9889V2.94216C72.9889 4.36405 72.8834 5.53641 72.6725 6.46394C72.4616 7.39147 72.1854 8.11183 71.8388 8.62974V8.68153H76.8457Z" fill="white"/>
<path d="M7.48234 23.2515L6.4177 20.4454H2.25452L1.18987 23.2515H0.346191L3.81132 14.2305H4.89103L8.37122 23.2515H7.48234ZM4.35368 14.965H4.29844L2.46042 19.758H6.1917L4.35368 14.965Z" fill="white"/>
<path d="M11.0323 22.566H12.4083L12.9708 21.276L9.28467 14.2324H10.1987L12.6795 18.9878L13.3223 20.3202H13.3775L13.9249 18.9642L15.9739 14.2324H16.8427L13.267 22.453C13.1264 22.7732 12.9607 22.9851 12.7749 23.0934C12.5891 23.2017 12.3129 23.2535 11.9463 23.2535H11.0323V22.566Z" fill="white"/>
<path d="M22.3915 14.9151V23.2487H21.5529V14.9151H18.2686V14.2324H25.6759V14.9151H22.3915Z" fill="white"/>
<path d="M31.1002 23.4054C29.8849 23.4054 28.9458 23.0147 28.2829 22.2378C27.62 21.4562 27.2886 20.3027 27.2886 18.7678C27.2886 17.2423 27.62 16.0794 28.2829 15.279C28.9458 14.4786 29.8849 14.0784 31.1002 14.0784C31.8836 14.0784 32.5465 14.2479 33.0839 14.5869C33.6212 14.9259 34.038 15.392 34.3394 15.9899L33.6514 16.3666C33.4354 15.8769 33.109 15.4861 32.6771 15.1989C32.2402 14.9117 31.7179 14.7658 31.1002 14.7658C30.1812 14.7658 29.4681 15.0671 28.9559 15.6745C28.4436 16.2818 28.1825 17.1434 28.1825 18.2687V19.2951C28.1825 20.411 28.4386 21.2632 28.9559 21.847C29.4681 22.4355 30.1862 22.7274 31.1002 22.7274C31.7531 22.7274 32.3005 22.5721 32.7424 22.2707C33.1843 21.9647 33.5107 21.5551 33.7217 21.0372L34.4097 21.4138C34.1184 22.0353 33.6966 22.525 33.1341 22.8828C32.5716 23.2312 31.8937 23.4054 31.1002 23.4054Z" fill="white"/>
<path d="M40.4513 23.4048C39.1959 23.4048 38.2166 23.0093 37.5085 22.223C36.7954 21.4367 36.4438 20.2738 36.4438 18.7389C36.4438 17.204 36.8004 16.0458 37.5085 15.2548C38.2216 14.4685 39.2009 14.073 40.4513 14.073C41.6968 14.073 42.671 14.4685 43.3841 15.2642C44.0973 16.0599 44.4488 17.2134 44.4488 18.7389C44.4488 20.2644 44.0922 21.4226 43.3841 22.2136C42.676 23.0093 41.6968 23.4048 40.4513 23.4048ZM40.4513 22.7221C40.9184 22.7221 41.3402 22.6468 41.7219 22.4961C42.0985 22.3454 42.425 22.1241 42.6961 21.8275C42.9673 21.5356 43.1782 21.1731 43.3289 20.7493C43.4796 20.3256 43.5549 19.8453 43.5549 19.3086V18.1692C43.5549 17.6324 43.4796 17.1522 43.3289 16.7285C43.1782 16.3047 42.9673 15.9469 42.6961 15.6597C42.425 15.3678 42.0985 15.1465 41.7219 14.9911C41.3452 14.8357 40.9184 14.7557 40.4513 14.7557C39.9843 14.7557 39.5574 14.8357 39.1758 14.9911C38.7941 15.1465 38.4627 15.3678 38.1915 15.6597C37.9203 15.9516 37.7094 16.3047 37.5587 16.7285C37.4081 17.1522 37.3327 17.6324 37.3327 18.1692V19.3086C37.3327 19.8453 37.4081 20.3256 37.5587 20.7493C37.7094 21.1731 37.9203 21.5309 38.1915 21.8275C38.4627 22.1194 38.7891 22.3454 39.1758 22.4961C39.5625 22.6468 39.9843 22.7221 40.4513 22.7221Z" fill="white"/>
<path d="M47.4209 23.2535V14.2324H51.2627C52.1114 14.2324 52.7642 14.4584 53.2112 14.9104C53.6581 15.3624 53.8841 15.9745 53.8841 16.7513C53.8841 17.5376 53.6581 18.1544 53.2112 18.6064C52.7642 19.0584 52.1114 19.2844 51.2627 19.2844H48.2596V23.2535H47.4209ZM48.2646 18.597H51.2677C51.8302 18.597 52.257 18.451 52.5483 18.1638C52.8446 17.8766 52.9902 17.5047 52.9902 17.0574V16.4359C52.9902 15.998 52.8446 15.6308 52.5483 15.3436C52.252 15.0564 51.8251 14.9104 51.2677 14.9104H48.2646V18.597Z" fill="white"/>
<path d="M59.8615 23.4054C58.6462 23.4054 57.707 23.0147 57.0442 22.2378C56.3813 21.4562 56.0498 20.3027 56.0498 18.7678C56.0498 17.2423 56.3813 16.0794 57.0442 15.279C57.707 14.4786 58.6462 14.0784 59.8615 14.0784C60.6449 14.0784 61.3078 14.2479 61.8451 14.5869C62.3825 14.9259 62.7993 15.392 63.1006 15.9899L62.4126 16.3666C62.1967 15.8769 61.8702 15.4861 61.4383 15.1989C61.0014 14.9117 60.4792 14.7658 59.8615 14.7658C58.9425 14.7658 58.2293 15.0671 57.7171 15.6745C57.2049 16.2818 56.9437 17.1434 56.9437 18.2687V19.2951C56.9437 20.411 57.1998 21.2632 57.7171 21.847C58.2293 22.4355 58.9475 22.7274 59.8615 22.7274C60.5143 22.7274 61.0617 22.5721 61.5036 22.2707C61.9456 21.9647 62.272 21.5551 62.4829 21.0372L63.1709 21.4138C62.8796 22.0353 62.4578 22.525 61.8953 22.8828C61.3379 23.2312 60.66 23.4054 59.8615 23.4054Z" fill="white"/>
</svg>
